<svg width="30" height="30" viewBox="0 0 30 30" fill="none" xmlns="http://www.w3.org/2000/svg">
<path d="M26 14.5459C26.625 14.9463 27.1823 15.4004 27.6719 15.9082C28.1615 16.416 28.5833 16.9727 28.9375 17.5781C29.2917 18.1836 29.5521 18.8232 29.7188 19.4971C29.8854 20.1709 29.9792 20.8594 30 21.5625C30 22.7246 29.7656 23.8184 29.2969 24.8438C28.8281 25.8691 28.1823 26.7627 27.3594 27.5244C26.5365 28.2861 25.5833 28.8867 24.5 29.3262C23.4167 29.7656 22.25 29.9902 21 30C20.0521 30 19.1354 29.8682 18.25 29.6045C17.3646 29.3408 16.5521 28.96 15.8125 28.4619C15.0729 27.9639 14.4167 27.3682 13.8438 26.6748C13.2708 25.9814 12.8281 25.2148 12.5156 24.375H0V1.875H4V0H6V1.875H20V0H22V1.875H26V14.5459ZM2 3.75V7.5H24V3.75H22V5.625H20V3.75H6V5.625H4V3.75H2ZM12.0469 22.5C12.0156 22.1973 12 21.8848 12 21.5625C12 20.7227 12.125 19.9072 12.375 19.1162C12.625 18.3252 13.0052 17.5781 13.5156 16.875H12V15H14V16.2598C14.4271 15.7617 14.901 15.3223 15.4219 14.9414C15.9427 14.5605 16.5052 14.2334 17.1094 13.96C17.7135 13.6865 18.3438 13.4814 19 13.3447C19.6562 13.208 20.3229 13.1348 21 13.125C22.0417 13.125 23.0417 13.2861 24 13.6084V9.375H2V22.5H12.0469ZM21 28.125C21.9688 28.125 22.875 27.9541 23.7188 27.6123C24.5625 27.2705 25.3021 26.8018 25.9375 26.2061C26.5729 25.6104 27.0729 24.917 27.4375 24.126C27.8021 23.335 27.9896 22.4805 28 21.5625C28 20.6543 27.8177 19.8047 27.4531 19.0137C27.0885 18.2227 26.5885 17.5293 25.9531 16.9336C25.3177 16.3379 24.5781 15.8691 23.7344 15.5273C22.8906 15.1855 21.9792 15.0098 21 15C20.0312 15 19.125 15.1709 18.2812 15.5127C17.4375 15.8545 16.6979 16.3232 16.0625 16.9189C15.4271 17.5146 14.9271 18.208 14.5625 18.999C14.1979 19.79 14.0104 20.6445 14 21.5625C14 22.4707 14.1823 23.3203 14.5469 24.1113C14.9115 24.9023 15.4115 25.5957 16.0469 26.1914C16.6823 26.7871 17.4219 27.2559 18.2656 27.5977C19.1094 27.9395 20.0208 28.1152 21 28.125ZM22 20.625H25V22.5H20V16.875H22V20.625ZM4 15H6V16.875H4V15ZM8 15H10V16.875H8V15ZM8 11.25H10V13.125H8V11.25ZM4 18.75H6V20.625H4V18.75ZM8 18.75H10V20.625H8V18.75ZM14 13.125H12V11.25H14V13.125ZM18 13.125H16V11.25H18V13.125ZM22 13.125H20V11.25H22V13.125Z" fill="black"/>
</svg>
