<svg width="24" height="25" viewBox="0 0 24 25" fill="none" xmlns="http://www.w3.org/2000/svg">
<path d="M19.0408 4.27563C17.9948 3.23499 17.4182 1.89882 17.4184 0.515625H12.6888V17.049C12.6531 17.9439 12.2197 18.7917 11.4801 19.4136C10.7404 20.0355 9.75245 20.3828 8.72449 20.3823C6.55102 20.3823 4.7449 18.8356 4.7449 16.9156C4.7449 14.6223 7.28572 12.9023 9.90306 13.609V9.39563C4.62245 8.78229 0 12.3556 0 16.9156C0 21.3556 4.22449 24.5156 8.70918 24.5156C13.5153 24.5156 17.4184 21.1156 17.4184 16.9156V8.52896C19.3362 9.72876 21.6388 10.3725 24 10.369V6.24896C24 6.24896 21.1224 6.36896 19.0408 4.27563Z" fill="white"/>
</svg>
