<svg width="40" height="40" viewBox="0 0 40 40" fill="none" xmlns="http://www.w3.org/2000/svg">
<g clip-path="url(#clip0_1601_1196)">
<path d="M13.9344 1.31568C9.9378 2.70214 6.49112 5.3337 4.10064 8.82381C1.71016 12.3139 0.501892 16.4786 0.653301 20.7062C0.80471 24.9338 2.30782 29.0014 4.94185 32.3115C7.57587 35.6217 11.202 37.9999 15.2875 39.0969C18.5998 39.9516 22.0701 39.9891 25.4 39.2063C28.4167 38.5287 31.2056 37.0793 33.4938 35.0001C35.8753 32.7699 37.6039 29.9328 38.4938 26.7938C39.461 23.3803 39.6332 19.7905 38.9969 16.3001H20.3969V24.0157H31.1688C30.9535 25.2463 30.4922 26.4208 29.8124 27.4689C29.1326 28.517 28.2484 29.4173 27.2125 30.1157C25.8972 30.9858 24.4144 31.5712 22.8594 31.8344C21.2999 32.1244 19.7002 32.1244 18.1407 31.8344C16.56 31.5076 15.0647 30.8552 13.75 29.9188C11.638 28.4238 10.0522 26.2998 9.21879 23.8501C8.37134 21.3544 8.37134 18.6488 9.21879 16.1532C9.812 14.4039 10.7926 12.8111 12.0875 11.4938C13.5694 9.95864 15.4455 8.8613 17.5099 8.32217C19.5744 7.78304 21.7474 7.82296 23.7907 8.43756C25.3868 8.92753 26.8464 9.78361 28.0532 10.9376C29.2678 9.72922 30.4803 8.51776 31.6907 7.30318C32.3157 6.65006 32.9969 6.02818 33.6125 5.35943C31.7706 3.64529 29.6084 2.31148 27.25 1.43443C22.9554 -0.124977 18.2562 -0.166884 13.9344 1.31568Z" fill="white"/>
<path d="M13.9342 1.31561C18.2556 -0.16796 22.9548 -0.127156 27.2498 1.43124C29.6086 2.31425 31.7698 3.65448 33.6092 5.37499C32.9842 6.04374 32.3248 6.66874 31.6873 7.31874C30.4748 8.52915 29.2633 9.7354 28.0529 10.9375C26.8462 9.78354 25.3866 8.92746 23.7904 8.43749C21.7479 7.82074 19.5749 7.77851 17.5099 8.31543C15.4449 8.85235 13.5677 9.94768 12.0842 11.4812C10.7893 12.7985 9.80864 14.3913 9.21543 16.1406L2.7373 11.125C5.05608 6.52674 9.0709 3.00944 13.9342 1.31561Z" fill="#E33629"/>
<path d="M1.01835 16.0938C1.36654 14.3681 1.94461 12.697 2.7371 11.125L9.21523 16.1531C8.36777 18.6488 8.36777 21.3544 9.21523 23.85C7.05689 25.5167 4.89752 27.1917 2.7371 28.875C0.753196 24.926 0.14814 20.4266 1.01835 16.0938Z" fill="#F8BD00"/>
<path d="M20.3969 16.2969H38.9969C39.6331 19.7873 39.461 23.3771 38.4938 26.7906C37.6039 29.9296 35.8753 32.7667 33.4938 34.9969C31.4031 33.3656 29.3031 31.7469 27.2125 30.1156C28.249 29.4165 29.1337 28.5153 29.8135 27.466C30.4933 26.4168 30.9543 25.2411 31.1688 24.0094H20.3969C20.3938 21.4406 20.3969 18.8687 20.3969 16.2969Z" fill="#587DBD"/>
<path d="M2.73438 28.875C4.89479 27.2083 7.05417 25.5333 9.2125 23.85C10.0475 26.3006 11.6356 28.4246 13.75 29.9187C15.0688 30.8508 16.5673 31.4979 18.15 31.8187C19.7096 32.1087 21.3092 32.1087 22.8687 31.8187C24.4237 31.5555 25.9065 30.9701 27.2219 30.1C29.3125 31.7312 31.4125 33.35 33.5031 34.9812C31.2153 37.0616 28.4263 38.5121 25.4094 39.1906C22.0794 39.9734 18.6091 39.9359 15.2969 39.0812C12.6772 38.3818 10.2302 37.1487 8.10938 35.4594C5.86457 33.6771 4.03111 31.4311 2.73438 28.875Z" fill="#319F43"/>
</g>
<defs>
<clipPath id="clip0_1601_1196">
<rect width="40" height="40" fill="white"/>
</clipPath>
</defs>
</svg>
