<svg width="24" height="25" viewBox="0 0 24 25" fill="none" xmlns="http://www.w3.org/2000/svg">
<path d="M6.96 0.515625H17.04C20.88 0.515625 24 3.63563 24 7.47563V17.5556C24 19.4015 23.2667 21.1718 21.9615 22.4771C20.6562 23.7823 18.8859 24.5156 17.04 24.5156H6.96C3.12 24.5156 0 21.3956 0 17.5556V7.47563C0 5.62972 0.733284 3.85942 2.03854 2.55416C3.34379 1.24891 5.11409 0.515625 6.96 0.515625ZM6.72 2.91563C5.57427 2.91563 4.47546 3.37077 3.6653 4.18092C2.85514 4.99108 2.4 6.08989 2.4 7.23563V17.7956C2.4 20.1836 4.332 22.1156 6.72 22.1156H17.28C18.4257 22.1156 19.5245 21.6605 20.3347 20.8503C21.1449 20.0402 21.6 18.9414 21.6 17.7956V7.23563C21.6 4.84763 19.668 2.91563 17.28 2.91563H6.72ZM18.3 4.71563C18.6978 4.71563 19.0794 4.87366 19.3607 5.15496C19.642 5.43627 19.8 5.8178 19.8 6.21563C19.8 6.61345 19.642 6.99498 19.3607 7.27629C19.0794 7.55759 18.6978 7.71563 18.3 7.71563C17.9022 7.71563 17.5206 7.55759 17.2393 7.27629C16.958 6.99498 16.8 6.61345 16.8 6.21563C16.8 5.8178 16.958 5.43627 17.2393 5.15496C17.5206 4.87366 17.9022 4.71563 18.3 4.71563ZM12 6.51562C13.5913 6.51563 15.1174 7.14777 16.2426 8.27298C17.3679 9.3982 18 10.9243 18 12.5156C18 14.1069 17.3679 15.633 16.2426 16.7583C15.1174 17.8835 13.5913 18.5156 12 18.5156C10.4087 18.5156 8.88258 17.8835 7.75736 16.7583C6.63214 15.633 6 14.1069 6 12.5156C6 10.9243 6.63214 9.3982 7.75736 8.27298C8.88258 7.14777 10.4087 6.51563 12 6.51562ZM12 8.91563C11.0452 8.91563 10.1295 9.29491 9.45442 9.97004C8.77928 10.6452 8.4 11.5608 8.4 12.5156C8.4 13.4704 8.77928 14.3861 9.45442 15.0612C10.1295 15.7363 11.0452 16.1156 12 16.1156C12.9548 16.1156 13.8705 15.7363 14.5456 15.0612C15.2207 14.3861 15.6 13.4704 15.6 12.5156C15.6 11.5608 15.2207 10.6452 14.5456 9.97004C13.8705 9.29491 12.9548 8.91563 12 8.91563Z" fill="white"/>
</svg>
