<svg width="34" height="40" viewBox="0 0 34 40" fill="none" xmlns="http://www.w3.org/2000/svg">
<path d="M28.3285 38.3952C26.1316 40.506 23.733 40.1727 21.4241 39.1728C18.9806 38.1507 16.7389 38.1063 14.161 39.1728C10.9329 40.5504 9.22924 40.1505 7.30138 38.3952C-3.6381 27.2188 -2.02408 10.1987 10.3949 9.57657C13.4212 9.73211 15.5284 11.2208 17.2994 11.3541C19.9446 10.8209 22.4777 9.28772 25.3022 9.48769C28.6872 9.75432 31.2427 11.0875 32.924 13.4872C25.9299 17.6422 27.5887 26.7744 34 29.3296C32.7222 32.6625 31.0634 35.9732 28.3061 38.4174L28.3285 38.3952ZM17.0752 9.44325C16.7389 4.48832 20.7964 0.39995 25.4591 0C26.1092 5.73261 20.2136 9.99874 17.0752 9.44325Z" fill="black"/>
</svg>
